<svg width="968" height="240" viewBox="0 0 968 240" fill="none" xmlns="http://www.w3.org/2000/svg">
<path fill-rule="evenodd" clip-rule="evenodd" d="M110 0C104.477 0 100 4.47716 100 10V100L40 100L20 100C8.95431 100 0 108.954 0 120V200V220C0 231.046 8.9543 240 20 240H80C91.0457 240 100 231.046 100 220C100 231.046 108.954 240 120 240H140H160C148.954 240 140 231.046 140 220V140V100V20C140 8.95431 131.046 0 120 0H110ZM40 200H80C91.0457 200 100 191.046 100 180V140H40V200Z" fill="#114BA8"/>
<path d="M207 30C207 13.4315 220.431 0 237 0H367C378.046 0 387 8.95431 387 20V220C387 231.046 378.046 240 367 240H237C220.431 240 207 226.569 207 210V30Z" fill="white"/>
<path d="M357 20C362.523 20 367 24.4772 367 30L367 40C367 51.0457 358.046 60 347 60L237 60C231.477 60 227 55.5228 227 50L227 40C227 28.9543 235.954 20 247 20L357 20Z" fill="#114BA8"/>
<path d="M337 100C342.523 100 347 104.477 347 110L347 130C347 135.523 342.523 140 337 140L247 140C235.954 140 227 131.046 227 120V120C227 108.954 235.954 100 247 100L337 100Z" fill="#114BA8"/>
<path d="M237 180C231.477 180 227 184.477 227 190L227 200C227 211.046 235.954 220 247 220L357 220C362.523 220 367 215.523 367 210L367 200C367 188.954 358.046 180 347 180L237 180Z" fill="#114BA8"/>
<path fill-rule="evenodd" clip-rule="evenodd" d="M474 10C474 4.47716 469.523 0 464 0H454C442.954 0 434 8.9543 434 20V100V140V230C434 235.523 438.477 240 444 240H454C465.046 240 474 231.046 474 220V140L534 140L554 140C565.046 140 574 131.046 574 120V40V20C574 8.9543 565.046 0 554 0H494C482.954 0 474 8.9543 474 20V10ZM534 40V100H494C482.954 100 474 91.0457 474 80V40H534Z" fill="#114BA8"/>
<path fill-rule="evenodd" clip-rule="evenodd" d="M651 0C656.523 0 661 4.47717 661 10V20C661 8.95435 669.954 0 681 0H741C752.046 0 761 8.95435 761 20V40V220C761 231.046 752.046 240 741 240C729.954 240 721 231.046 721 220V40H681C669.954 40 661 48.9543 661 60V220C661 231.046 652.046 240 641 240H631C625.477 240 621 235.523 621 230V20C621 8.95435 629.954 0 641 0H651Z" fill="#114BA8"/>
<path fill-rule="evenodd" clip-rule="evenodd" d="M888 0C899.046 0 908 8.95431 908 20V10C908 4.47716 912.477 2.94047e-06 918 2.94047e-06H928C939.046 2.94047e-06 948 8.95431 948 20V220C948 231.046 956.954 240 968 240H948H928C916.954 240 908 231.046 908 220C908 231.046 899.046 240 888 240H828C816.954 240 808 231.046 808 220V200V120C808 108.954 816.954 100 828 100H848H908V60C908 48.9562 899.049 40.003 888.006 40H888L808 40V20C808 8.95431 816.954 3.97973e-06 828 3.49691e-06L888 0ZM908 200H848V140H888C899.046 140 908 148.954 908 160V200Z" fill="#114BA8"/>
</svg>
